<svg width="16" height="12" viewBox="0 0 16 12" fill="none" xmlns="http://www.w3.org/2000/svg">
<path fill-rule="evenodd" clip-rule="evenodd" d="M14.9552 2.23005C15.0202 2.29505 15.0202 2.36005 15.0202 2.42505C15.1502 3.07505 15.2802 4.44005 15.2802 6.00005C15.2802 7.27435 15.1501 8.41854 15.067 9.14918C15.0484 9.31299 15.0321 9.45601 15.0202 9.57505C14.9552 9.64005 14.9552 9.70505 14.9552 9.77005V9.83505C14.7602 10.42 14.2402 10.81 13.5902 10.81H13.7202C13.7202 10.81 11.1202 11.2 7.74019 11.2C4.2952 11.2 1.7602 10.81 1.7602 10.81H1.8902C1.2402 10.81 0.720195 10.42 0.525195 9.83505V9.77005C0.460195 9.70505 0.460195 9.64005 0.460195 9.57505C0.448291 9.45601 0.432027 9.31298 0.413398 9.14917C0.330311 8.41853 0.200195 7.27435 0.200195 6.00005C0.200195 4.72575 0.330311 3.58156 0.413398 2.85092C0.432027 2.68711 0.448291 2.54409 0.460195 2.42505C0.525195 2.36005 0.525195 2.29505 0.525195 2.23005V2.16505C0.720195 1.58005 1.2402 1.19005 1.8902 1.19005H1.7602C1.7602 1.19005 4.3602 0.800049 7.74019 0.800049C11.1852 0.800049 13.7202 1.19005 13.7202 1.19005H13.5902C14.2402 1.19005 14.7602 1.58005 14.9552 2.16505V2.23005ZM6.89521 8.53496L9.9502 6.32496C10.0802 6.25996 10.1452 6.12996 10.0802 5.99996C10.0802 5.86996 10.0152 5.73996 9.9502 5.67496L6.89521 3.46496C6.7652 3.39996 6.6352 3.39996 6.50521 3.46496C6.37521 3.52996 6.3102 3.65996 6.3102 3.78996V8.20996C6.3102 8.33996 6.37521 8.46996 6.50521 8.53496C6.57021 8.59996 6.6352 8.59996 6.7002 8.59996C6.7652 8.59996 6.8302 8.59996 6.89521 8.53496Z" fill="white"/>
</svg>
