<svg width="48" height="48" viewBox="0 0 48 48" fill="none" xmlns="http://www.w3.org/2000/svg">
<rect width="48" height="48" fill="#FAFAFA"/>
<g clip-path="url(#clip0_435_763)">
<path d="M43.4253 10.8081H36.1187V8.78284C36.1185 8.5699 36.0337 8.36579 35.883 8.21531C35.7323 8.06484 35.5281 7.98031 35.3152 7.98031H34.7979V7.08578C34.7963 5.47275 34.1548 3.92625 33.0142 2.78566C31.8736 1.64508 30.3272 1.00358 28.7141 1.00195H19.2843C17.6712 1.00358 16.1247 1.64508 14.9841 2.78566C13.8435 3.92625 13.202 5.47275 13.2004 7.08578V7.98031H12.6831C12.4703 7.98058 12.2661 8.0652 12.1155 8.21561C11.9649 8.36603 11.8801 8.56998 11.8796 8.78284V10.8081H9.2767C9.06394 10.8083 8.85995 10.893 8.70951 11.0434C8.55907 11.1938 8.47442 11.3978 8.47415 11.6106C8.47442 11.8233 8.55907 12.0273 8.70951 12.1777C8.85995 12.3282 9.06394 12.4128 9.2767 12.4131H43.4222C44.208 12.415 44.9609 12.728 45.5165 13.2835C46.0721 13.8391 46.385 14.5921 46.3869 15.3778V21.6017C46.3865 22.2884 46.1483 22.9537 45.7127 23.4845C45.2772 24.0153 44.6712 24.3788 43.9978 24.5133L26.9444 27.6763H21.0569L4.00461 24.5163C3.32976 24.3828 2.72204 24.0195 2.28494 23.4882C1.84783 22.957 1.60839 22.2907 1.6073 21.6027V15.3788C1.60919 14.5931 1.92216 13.8402 2.47775 13.2846C3.03333 12.729 3.78622 12.416 4.57193 12.4141H5.99197C6.20473 12.4138 6.40872 12.3292 6.55917 12.1788C6.70961 12.0283 6.79426 11.8244 6.79453 11.6116C6.79426 11.3988 6.70961 11.1949 6.55917 11.0444C6.40872 10.894 6.20473 10.8094 5.99197 10.8091H4.57193C3.35901 10.8104 2.19616 11.2929 1.33849 12.1505C0.480828 13.0082 -0.00157674 14.171 -0.00292969 15.384V21.6078C-0.00132269 22.329 0.170217 23.0396 0.497748 23.682C0.825278 24.3245 1.29957 24.8807 1.88222 25.3056V41.4102C1.88358 42.6231 2.36611 43.786 3.22377 44.6436C4.08143 45.5013 5.24429 45.9837 6.45721 45.9851H34.2275C34.4404 45.9848 34.6446 45.9 34.795 45.7494C34.9455 45.5987 35.03 45.3945 35.03 45.1815C35.0298 44.9688 34.9451 44.7648 34.7947 44.6144C34.6442 44.4639 34.4402 44.3793 34.2275 44.379H6.45721C5.67149 44.3771 4.91848 44.0642 4.3629 43.5086C3.80731 42.953 3.49434 42.2 3.49245 41.4143V26.0488C3.56504 26.0672 3.63449 26.0825 3.70298 26.0958L20.1798 29.1485V36.4959C20.1794 36.6671 20.2341 36.834 20.3357 36.9718C20.4373 37.1097 20.5805 37.2113 20.7441 37.2616L23.762 38.2052C23.8395 38.2293 23.92 38.2417 24.0011 38.242C24.0823 38.2417 24.1629 38.2293 24.2404 38.2052L27.2583 37.2616C27.4218 37.2111 27.5647 37.1094 27.6661 36.9716C27.7675 36.8337 27.822 36.667 27.8216 36.4959V29.1485L44.3065 26.0938C44.3709 26.0805 44.4374 26.0662 44.511 26.0488V41.4061C44.5091 42.1918 44.1962 42.9448 43.6406 43.5004C43.085 44.056 42.332 44.369 41.5463 44.3708H37.5459C37.333 44.3708 37.1287 44.4554 36.9781 44.6058C36.8274 44.7563 36.7426 44.9604 36.7423 45.1734C36.7423 45.3865 36.827 45.5909 36.9777 45.7416C37.1284 45.8923 37.3328 45.9769 37.5459 45.9769H41.5463C42.7592 45.9756 43.922 45.4931 44.7797 44.6355C45.6374 43.7778 46.1198 42.6149 46.1211 41.402V25.3035C46.7041 24.8787 47.1788 24.3223 47.5065 23.6797C47.8342 23.037 48.0058 22.3262 48.0073 21.6048V15.3809C48.0054 14.1671 47.5218 13.0037 46.6626 12.1462C45.8035 11.2888 44.6391 10.8075 43.4253 10.8081ZM19.2853 2.607H28.7151C29.9023 2.60835 31.0404 3.08055 31.8798 3.92C32.7193 4.75945 33.1916 5.8976 33.1929 7.08477V7.9793H31.7811V7.08477C31.7811 6.27136 31.4579 5.49126 30.8827 4.91609C30.3075 4.34093 29.5276 4.0178 28.7141 4.0178H27.1468C26.9339 4.0178 26.7297 4.10232 26.579 4.25279C26.4284 4.40327 26.3436 4.60739 26.3433 4.82032C26.3436 5.03326 26.4284 5.23739 26.579 5.38786C26.7297 5.53833 26.9339 5.62285 27.1468 5.62285H28.7141C29.1012 5.62339 29.4722 5.77736 29.7458 6.05103C30.0195 6.32469 30.1735 6.69571 30.174 7.08272V7.97725H29.6567C29.444 7.97752 29.24 8.06216 29.0895 8.2126C28.9391 8.36304 28.8544 8.56702 28.8542 8.77978V10.8081H19.1421V8.78182C19.1419 8.56889 19.057 8.36476 18.9064 8.21428C18.7557 8.06381 18.5515 7.9793 18.3386 7.9793H17.8213V7.08477C17.8218 6.69775 17.9758 6.32674 18.2495 6.05308C18.5231 5.77942 18.8941 5.62543 19.2811 5.62489H23.854C24.0669 5.62462 24.271 5.54001 24.4216 5.3896C24.5722 5.23918 24.657 5.03522 24.6576 4.82236C24.6573 4.60943 24.5725 4.40531 24.4218 4.25484C24.2712 4.10436 24.0669 4.01985 23.854 4.01985H19.2811C18.4677 4.01985 17.6876 4.34297 17.1125 4.91814C16.5373 5.4933 16.2142 6.2734 16.2142 7.08681V7.98134H14.8024V7.08681C14.8029 5.89823 15.2754 4.75852 16.1161 3.91826C16.9567 3.078 18.0967 2.60597 19.2853 2.60597V2.607ZM34.5127 9.58433V10.8111H30.4613V9.58433H34.5127ZM17.5421 9.58433V10.8111H13.4907V9.58433H17.5421ZM26.2176 33.4341V35.907L24.0033 36.5992L21.7889 35.907V33.4341H26.2176ZM26.2176 29.2845V31.827H21.7889V29.2845H26.2176Z" fill="#F5B458"/>
</g>
<defs>
<clipPath id="clip0_435_763">
<rect width="48" height="44.9821" fill="white" transform="translate(0 1)"/>
</clipPath>
</defs>
</svg>
