<svg width="14" height="12" viewBox="0 0 14 12" fill="none" xmlns="http://www.w3.org/2000/svg">
<path d="M12.5702 3.59014C12.5761 3.71133 12.5784 3.83297 12.5784 3.95599C12.5784 7.69236 9.73452 12 4.53431 12C2.93789 12 1.45127 11.5321 0.200195 10.7303C0.421617 10.7563 0.646227 10.7695 0.874482 10.7695C2.19937 10.7695 3.41855 10.3175 4.38579 9.5594C3.14883 9.53617 2.10506 8.71837 1.74513 7.59531C1.91735 7.62903 2.09458 7.64589 2.27682 7.64589C2.53469 7.64589 2.78436 7.61217 3.02172 7.54702C1.72782 7.28733 0.753293 6.14377 0.753293 4.77515C0.753293 4.76285 0.753293 4.75101 0.753749 4.73871C1.13463 4.95056 1.57064 5.07767 2.03444 5.09271C1.27541 4.58471 0.776529 3.72044 0.776529 2.73908C0.776529 2.22106 0.915942 1.73494 1.15923 1.31761C2.55382 3.02793 4.63728 4.15372 6.98726 4.27126C6.93897 4.06487 6.91391 3.84846 6.91391 3.62704C6.91391 2.06616 8.17956 0.800049 9.74136 0.800049C10.5546 0.800049 11.289 1.14357 11.8048 1.69257C12.449 1.56637 13.054 1.33037 13.6003 1.00644C13.3884 1.66705 12.9406 2.22106 12.3565 2.57051C12.9292 2.50217 13.4741 2.35 13.9807 2.12539C13.6026 2.69352 13.1228 3.19149 12.5702 3.59014Z" fill="white"/>
</svg>
